<svg xmlns="http://www.w3.org/2000/svg" width="32" height="33" viewBox="0 0 32 33"><g><g><g><path fill="none" stroke="#dbd2cb" stroke-miterlimit="20" d="M31.311 16.823v.046c-.019 8.484-6.913 15.346-15.397 15.327C7.43 32.177.568 25.283.588 16.8c.02-8.456 6.87-15.307 15.326-15.326h.047c.388 0 .734 0 1.104.042.598.042 1.194.12 1.783.234.719.136 1.427.325 2.118.563a17.15 17.15 0 0 1 9.486 9.447c.25.708.446 1.435.587 2.172v0c.113.596.191 1.198.233 1.804.039.361.039.726.039 1.088z"/></g><g><path fill="#dbd2cb" d="M19.447 11.94V9.356h-2.845a2.58 2.58 0 0 0-2.596 2.564v2.351h-1.554v2.581h1.554v7.461h3.109v-7.457h2.06l.272-2.581h-2.301V12.72c0-.429.348-.777.777-.777z"/></g></g></g></svg>