<svg xmlns="http://www.w3.org/2000/svg" width="33" height="33" viewBox="0 0 33 33"><g><g><g><path fill="none" stroke="#dbd2cb" stroke-miterlimit="20" d="M32.06 16.823v.046c-.019 8.484-6.913 15.346-15.397 15.327C8.179 32.177 1.317 25.283 1.337 16.8c.019-8.456 6.87-15.307 15.326-15.326h.047c.389 0 .735 0 1.104.042.598.042 1.194.12 1.783.234.719.136 1.427.325 2.118.563a17.147 17.147 0 0 1 9.486 9.447c.25.708.447 1.435.587 2.172v0c.114.596.192 1.198.233 1.804.04.361.04.726.04 1.088z"/></g><g><path fill="#dbd2cb" d="M24.857 11.748c-.636.234-1.285.434-1.943.598v-.031c1.333-.866 1.493-1.919 1.493-1.919a6.173 6.173 0 0 1-2.149.858A3.316 3.316 0 0 0 16.6 14.32a9.857 9.857 0 0 1-6.995-3.532s-.991 1.815.051 3.443c.261.409.596.766.987 1.053a3.717 3.717 0 0 1-.777-.116 5.682 5.682 0 0 1-.688-.3s-.295 2.472 2.6 3.335l.105.023a3.757 3.757 0 0 1-.754.089 7.62 7.62 0 0 1-.797-.066 3.262 3.262 0 0 0 3.082 2.313h.031c-.431.303-1.943 1.305-3.163 1.39-1.458.098-1.749 0-1.749 0a9.734 9.734 0 0 0 8.165 1.104c4.663-1.418 7.049-6.995 6.439-9.521 1.22-.944 1.803-1.822 1.721-1.787z"/></g></g></g></svg>