<svg xmlns="http://www.w3.org/2000/svg" width="33" height="33" viewBox="0 0 33 33"><g><g><g><path fill="none" stroke="#dbd2cb" stroke-miterlimit="20" d="M31.809 16.823v.046c-.019 8.484-6.912 15.346-15.396 15.327C7.929 32.177 1.067 25.283 1.086 16.8c.019-8.456 6.87-15.307 15.327-15.326h.046c.389 0 .735 0 1.104.042.599.042 1.194.12 1.784.234.718.136 1.426.325 2.117.563a17.146 17.146 0 0 1 9.486 9.447c.251.708.447 1.435.587 2.172v0c.114.596.192 1.198.233 1.804.039.361.039.726.039 1.088z"/></g><g><path fill="#dbd2cb" d="M14.82 19.283v-4.897l4.252 2.448zm9.457-6.377a2.044 2.044 0 0 0-1.439-1.44c-1.278-.35-6.39-.35-6.39-.35s-5.112 0-6.391.337a2.088 2.088 0 0 0-1.439 1.453c-.337 1.28-.337 3.928-.337 3.928s0 2.663.337 3.929c.189.699.74 1.25 1.439 1.439 1.292.35 6.391.35 6.391.35s5.112 0 6.39-.336c.7-.188 1.251-.74 1.439-1.44.337-1.279.337-3.928.337-3.928s.013-2.663-.337-3.942z"/></g></g></g></svg>