<svg width="35" height="35" viewBox="0 0 35 35" fill="none" xmlns="http://www.w3.org/2000/svg">
<path d="M15.9048 7.67871C15.492 7.67871 15.1569 8.01376 15.1569 8.42656V10.2079L13.2485 9.25364C12.8791 9.06967 12.4304 9.21921 12.2449 9.58869C12.0595 9.95809 12.2105 10.4068 12.5799 10.5923L15.1585 11.8815V16.6526H11.8815L10.5923 14.0741C10.4069 13.7047 9.95816 13.5566 9.58868 13.7391C9.21928 13.9245 9.06967 14.3732 9.25363 14.7427L10.2079 16.6511H8.42656C8.01376 16.6511 7.67871 16.9861 7.67871 17.3989C7.67871 17.8117 8.01376 18.1468 8.42656 18.1468H10.2079L9.25363 20.0552C9.0682 20.4246 9.21921 20.8733 9.58868 21.0588C9.69637 21.1127 9.81002 21.1381 9.92219 21.1381C10.1974 21.1381 10.4606 20.987 10.5922 20.7253L11.8814 18.1468H15.1569V22.9195L12.5784 24.2087C12.209 24.3941 12.0594 24.8428 12.2434 25.2123C12.3749 25.474 12.6382 25.6251 12.9134 25.6251C13.0256 25.6251 13.1392 25.5996 13.2469 25.5458L15.1553 24.5916V26.3729C15.1553 26.7857 15.4904 27.1207 15.9032 27.1207C16.316 27.1207 16.651 26.7857 16.651 26.3729V8.42502C16.6526 8.01369 16.3176 7.67871 15.9048 7.67871Z" fill="#313131"/>
<path d="M18.8953 13.6613C20.551 13.6613 21.3617 13.1199 22.0137 12.6846C22.4804 12.372 22.7885 12.1656 23.3823 12.1656C24.5848 12.1656 25.1112 12.5171 25.6691 12.891C26.2091 13.2515 26.8223 13.6613 27.8692 13.6613C28.282 13.6613 28.6171 13.3263 28.6171 12.9135C28.6171 12.5007 28.282 12.1656 27.8692 12.1656C27.2755 12.1656 26.9674 11.9592 26.5007 11.6466C25.8486 11.2114 25.038 10.6699 23.3823 10.6699C22.3353 10.6699 21.7221 11.0797 21.1822 11.4402C20.6243 11.8141 20.0978 12.1656 18.8953 12.1656C18.4825 12.1656 18.1475 12.5007 18.1475 12.9135C18.1475 13.3263 18.4825 13.6613 18.8953 13.6613Z" fill="#313131"/>
<path d="M27.8692 21.1393C27.2755 21.1393 26.9674 20.9329 26.5007 20.6202C25.8486 20.185 25.038 19.6436 23.3823 19.6436C22.3353 19.6436 21.7221 20.0533 21.1822 20.4138C20.6243 20.7877 20.0978 21.1393 18.8953 21.1393C18.4825 21.1393 18.1475 21.4743 18.1475 21.8871C18.1475 22.2999 18.4825 22.6349 18.8953 22.6349C20.551 22.6349 21.3617 22.0934 22.0137 21.6582C22.4804 21.3456 22.7885 21.1392 23.3823 21.1392C24.5848 21.1392 25.1112 21.4906 25.6691 21.8646C26.2091 22.225 26.8223 22.6349 27.8692 22.6349C28.282 22.6349 28.6171 22.2998 28.6171 21.887C28.6171 21.4742 28.282 21.1393 27.8692 21.1393Z" fill="#313131"/>
<path d="M27.8692 16.6529C27.2755 16.6529 26.9674 16.4465 26.5007 16.1339C25.8486 15.6987 25.038 15.1572 23.3823 15.1572C22.3353 15.1572 21.7221 15.567 21.1822 15.9275C20.6243 16.3014 20.0978 16.6529 18.8953 16.6529C18.4825 16.6529 18.1475 16.988 18.1475 17.4008C18.1475 17.8136 18.4825 18.1486 18.8953 18.1486C20.551 18.1486 21.3617 17.6071 22.0137 17.1719C22.4804 16.8593 22.7885 16.6529 23.3823 16.6529C24.5848 16.6529 25.1112 17.0043 25.6691 17.3783C26.2091 17.7387 26.8223 18.1486 27.8692 18.1486C28.282 18.1486 28.6171 17.8135 28.6171 17.4007C28.6171 16.9879 28.282 16.6529 27.8692 16.6529Z" fill="#313131"/>
<path d="M17.4002 0.200195C7.9163 0.200195 0.200195 7.9163 0.200195 17.4002C0.200195 26.8841 7.9163 34.6002 17.4002 34.6002C26.8841 34.6002 34.6002 26.8841 34.6002 17.4002C34.6002 7.9163 26.8842 0.200195 17.4002 0.200195ZM17.4002 33.1046C8.74036 33.1046 1.69583 26.06 1.69583 17.4002C1.69583 8.74036 8.74036 1.69583 17.4002 1.69583C26.06 1.69583 33.1046 8.74036 33.1046 17.4002C33.1046 26.06 26.06 33.1046 17.4002 33.1046Z" fill="#313131"/>
</svg>
