<svg width="32" height="18" viewBox="0 0 32 18" fill="none" xmlns="http://www.w3.org/2000/svg">
<path d="M30.8904 0H1.10962C0.49775 0 0 0.49775 0 1.10963V7.98213C0 8.59401 0.49775 9.09176 1.10962 9.09176H1.395L3.43625 12.1537V13.1365C3.43625 14.0641 4.19094 14.8188 5.11856 14.8188H5.4965C7.25656 16.2154 11.3322 17.1096 16 17.1096C20.6678 17.1096 24.7434 16.2153 26.5035 14.8188H26.8814C27.8091 14.8188 28.5637 14.0641 28.5637 13.1365V12.1537L30.605 9.09176H30.8904C31.5023 9.09176 32 8.59401 32 7.98213V1.10963C32 0.49775 31.5023 0 30.8904 0ZM2.68556 9.09176H5.15438V11.4542H4.2605L2.68556 9.09176ZM27.4899 13.1365C27.4899 13.4721 27.217 13.745 26.8814 13.745H21.1546C20.8581 13.745 20.6176 13.9854 20.6176 14.2819C20.6176 14.5785 20.858 14.8189 21.1546 14.8189H24.2437C22.2731 15.5649 19.2264 16.0358 16 16.0358C12.7736 16.0358 9.72688 15.565 7.75631 14.8188H18.8634C19.1599 14.8188 19.4004 14.5784 19.4004 14.2819C19.4004 13.9853 19.16 13.7449 18.8634 13.7449H5.11856C4.783 13.7449 4.51006 13.472 4.51006 13.1364V12.5279H27.4899V13.1365ZM6.22819 11.4541V9.09169H7.44519V11.4541H6.22819ZM8.519 11.4541V9.09169H9.736V11.4541H8.519ZM10.8099 11.4541V9.09169H12.0269V11.4541H10.8099ZM13.1007 11.4541V9.09169H14.3177V11.4541H13.1007ZM15.3915 11.4541V9.09169H16.6085V11.4541H15.3915ZM17.6823 11.4541V9.09169H18.8993V11.4541H17.6823ZM19.9731 11.4541V9.09169H21.1901V11.4541H19.9731ZM22.264 11.4541V9.09169H23.481V11.4541H22.264ZM24.5548 11.4541V9.09169H25.7718V11.4541H24.5548ZM27.7395 11.4541H26.8456V9.09169H29.3144L27.7395 11.4541ZM30.9262 7.98213C30.9262 8.00188 30.9101 8.01794 30.8904 8.01794H1.10962C1.08987 8.01794 1.07381 8.00188 1.07381 7.98213V1.10963C1.07381 1.08988 1.08987 1.07381 1.10962 1.07381H30.8904C30.9101 1.07381 30.9262 1.08988 30.9262 1.10963V7.98213Z" fill="#313131"/>
<path d="M18.2224 4.16089C18.1721 3.86877 17.8945 3.67264 17.6021 3.72302C17.3099 3.77339 17.1139 4.05108 17.1642 4.34339C17.1757 4.4097 17.1815 4.47783 17.1815 4.54602C17.1815 5.19733 16.6516 5.7272 16.0003 5.7272C15.349 5.7272 14.8191 5.19733 14.8191 4.54602C14.8191 3.8947 15.349 3.36483 16.0003 3.36483C16.0589 3.36483 16.1176 3.36914 16.175 3.37758C16.4684 3.42089 16.7412 3.2182 16.7846 2.92483C16.8279 2.63145 16.6252 2.35858 16.3318 2.31527C16.2227 2.29914 16.1111 2.29102 16.0002 2.29102C14.7567 2.29102 13.7451 3.30264 13.7451 4.54608C13.7451 5.78952 14.7567 6.80114 16.0002 6.80114C17.2436 6.80114 18.2552 5.78952 18.2552 4.54608C18.2552 4.41677 18.2442 4.28727 18.2224 4.16089Z" fill="#313131"/>
</svg>
