<svg width="26" height="30" viewBox="0 0 26 30" fill="none" xmlns="http://www.w3.org/2000/svg">
<path d="M3.625 13.125C3.625 18.2812 7.84375 22.5 13 22.5C18.1562 22.5 22.375 18.2812 22.375 13.125H3.625Z" stroke="#313131" stroke-width="2" stroke-miterlimit="10" stroke-linecap="round" stroke-linejoin="round"/>
<path d="M1.75 13.125H24.25" stroke="#313131" stroke-width="2" stroke-miterlimit="10" stroke-linecap="round" stroke-linejoin="round"/>
<path d="M16.75 19.6875L21.4375 29.0625" stroke="#313131" stroke-width="2" stroke-miterlimit="10" stroke-linecap="round" stroke-linejoin="round"/>
<path d="M4.5625 29.0625L9.25 19.6875" stroke="#313131" stroke-width="2" stroke-miterlimit="10" stroke-linecap="round" stroke-linejoin="round"/>
<path d="M6.4375 10.3125H11.125" stroke="#313131" stroke-width="2" stroke-miterlimit="10" stroke-linecap="round" stroke-linejoin="round"/>
<path d="M14.875 10.3125H19.5625" stroke="#313131" stroke-width="2" stroke-miterlimit="10" stroke-linecap="round" stroke-linejoin="round"/>
<path d="M9.25 0.9375L9.8125 1.5C10.5625 2.25 10.5625 3.375 9.8125 4.125C9.4375 4.5 9.25 4.96875 9.25 5.4375V6.5625" stroke="#313131" stroke-width="2" stroke-miterlimit="10" stroke-linecap="round" stroke-linejoin="round"/>
<path d="M13 0.9375L13.5625 1.5C14.3125 2.25 14.3125 3.375 13.5625 4.125C13.1875 4.5 13 4.96875 13 5.4375V6.5625" stroke="#313131" stroke-width="2" stroke-miterlimit="10" stroke-linecap="round" stroke-linejoin="round"/>
<path d="M16.75 0.9375L17.3125 1.5C18.0625 2.25 18.0625 3.375 17.3125 4.125C16.9375 4.5 16.75 4.96875 16.75 5.4375V6.5625" stroke="#313131" stroke-width="2" stroke-miterlimit="10" stroke-linecap="round" stroke-linejoin="round"/>
</svg>
