<svg width="35" height="21" viewBox="0 0 35 21" fill="none" xmlns="http://www.w3.org/2000/svg">
<path d="M32.6222 7.99629H31.8596V4.10817H27.8546V0.599609H22.4742V7.99629H12.3237L12.3262 0.599609H6.94508V4.10817H2.94076V7.99629H2.17752C1.08705 7.99629 0.200195 8.88384 0.200195 9.97431V11.3926C0.200195 12.4831 1.08705 13.3707 2.17752 13.3707H2.94076V17.2514L6.94515 17.2584V20.7673H12.3194L12.3219 13.3706H22.4742V20.7673H27.8545V17.2594H31.8596V13.3706H32.6222C33.7126 13.3706 34.6002 12.483 34.6002 11.3926V9.97424C34.6002 8.88384 33.7126 7.99629 32.6222 7.99629ZM2.94076 11.9946H2.17752C1.84561 11.9946 1.57617 11.7245 1.57617 11.3926V9.97431C1.57617 9.64241 1.84561 9.37234 2.17752 9.37234H2.94076V11.9946ZM6.94515 15.8821L4.31681 15.878V13.3706V7.99629V5.48415H6.94515V15.8821ZM10.9468 10.6835L10.9421 13.3707H10.9458L10.9435 19.3913H8.32113V17.2608V4.10817V1.97566H10.9502L10.9468 10.6835ZM22.4742 11.9946H12.3224L12.3228 10.6835L12.3248 9.37234H22.4742V11.9946ZM26.4786 4.10817V17.2595V19.3914H23.8502V13.3707V7.99643V1.9758H26.4786V4.10817ZM30.4836 7.99629V13.3706V15.8834H27.8545V5.48415H30.4836V7.99629ZM33.2241 11.3926C33.2241 11.7245 32.9541 11.9946 32.6222 11.9946H31.8596V9.37227H32.6222C32.9541 9.37227 33.2241 9.64234 33.2241 9.97424V11.3926Z" fill="#313131"/>
</svg>
