<svg width="29" height="32" viewBox="0 0 29 32" fill="none" xmlns="http://www.w3.org/2000/svg">
<path d="M20.1337 20.2666H16.9337C16.6393 20.2666 16.4004 20.5055 16.4004 20.7999C16.4004 21.0943 16.6393 21.3332 16.9337 21.3332H20.1337C20.4281 21.3332 20.667 21.0943 20.667 20.7999C20.6671 20.5055 20.4282 20.2666 20.1337 20.2666Z" fill="#313131"/>
<path d="M20.1337 18.1338H16.9337C16.6393 18.1338 16.4004 18.3727 16.4004 18.6671C16.4004 18.9615 16.6393 19.2004 16.9337 19.2004H20.1337C20.4281 19.2004 20.667 18.9615 20.667 18.6671C20.667 18.3727 20.4282 18.1338 20.1337 18.1338Z" fill="#313131"/>
<path d="M16.4011 5.33334C17.8715 5.33334 19.0678 4.13708 19.0678 2.66664C19.0678 1.19626 17.8715 0 16.4011 0C14.9307 0 13.7344 1.19626 13.7344 2.6667C13.7344 4.13708 14.9306 5.33334 16.4011 5.33334ZM16.4011 1.06669C17.2832 1.06669 18.0011 1.78457 18.0011 2.6667C18.0011 3.36108 17.5541 3.94727 16.9344 4.16858V2.6667C16.9344 2.37232 16.6955 2.13339 16.4011 2.13339C16.1067 2.13339 15.8678 2.37232 15.8678 2.6667V4.16802C15.248 3.94721 14.8011 3.36108 14.8011 2.6667C14.8011 1.78457 15.5189 1.06669 16.4011 1.06669Z" fill="#313131"/>
<path d="M20.1335 13.8672H13.7335C13.4391 13.8672 13.2002 14.1061 13.2002 14.4005V25.0672C13.2002 25.3616 13.4391 25.6006 13.7335 25.6006H20.1335C20.4279 25.6006 20.6669 25.3616 20.6669 25.0672C20.6669 24.7729 20.4279 24.5339 20.1335 24.5339H14.2668V14.9339H20.1335C20.4279 14.9339 20.6669 14.6949 20.6669 14.4006C20.6669 14.1062 20.428 13.8672 20.1335 13.8672Z" fill="#313131"/>
<path d="M19.3231 5.51052C19.0612 5.37615 18.7402 5.47852 18.6047 5.7404C18.4698 6.00227 18.5733 6.3239 18.8346 6.45878C20.6224 7.37934 21.7333 9.19585 21.7333 11.1996V30.3997C21.7333 30.6936 21.4939 30.933 21.2 30.933H11.5999C11.3061 30.933 11.0666 30.6936 11.0666 30.3997V11.1996C11.0666 9.19585 12.1776 7.37934 13.9653 6.45878C14.2266 6.32384 14.3301 6.00221 14.1952 5.7404C14.0598 5.47852 13.7386 5.37558 13.4768 5.51052C11.3323 6.61453 10 8.79479 10 11.1996V30.3997C10 31.2818 10.7179 31.9997 11.6 31.9997H21.2001C22.0822 31.9997 22.8001 31.2818 22.8001 30.3997V11.1996C22.7999 8.79479 21.4677 6.61453 19.3231 5.51052Z" fill="#313131"/>
<path d="M27.5996 2.13379H20.6662C20.4396 2.13379 20.238 2.27673 20.1628 2.4906C20.0881 2.70448 20.1559 2.94236 20.3329 3.08367L22.9996 5.21699C23.0983 5.29537 23.2156 5.3338 23.3329 5.3338C23.4887 5.3338 23.6439 5.26555 23.7495 5.1338C23.9335 4.90343 23.8962 4.56793 23.6663 4.38392L22.1868 3.20048H27.5996C27.894 3.20048 28.1329 2.96154 28.1329 2.66717C28.1329 2.37273 27.894 2.13379 27.5996 2.13379Z" fill="#313131"/>
<path d="M12.1338 3.20042C12.4282 3.20042 12.6671 2.96148 12.6671 2.6671C12.6671 2.37273 12.4282 2.13379 12.1338 2.13379C6.57112 2.13379 2.53379 6.61968 2.53379 12.8005V15.0112C1.65591 15.2443 1.00047 16.0315 0.934843 17.032L0.401529 25.0321C0.391904 25.1788 0.443654 25.3238 0.544467 25.4315C0.64528 25.5393 0.786093 25.6006 0.933781 25.6006H5.20049C5.34824 25.6006 5.48905 25.5393 5.5898 25.4315C5.69062 25.3238 5.74237 25.1787 5.73274 25.0321L5.19943 17.0315C5.13168 16.0315 4.47623 15.2448 3.60048 15.0117V12.8005C3.60048 7.14819 7.10981 3.20042 12.1338 3.20042ZM4.13486 17.1024L4.6303 24.5338H1.50391L1.99935 17.1018C2.04097 16.4639 2.49004 16.0005 3.06717 16.0005C3.63354 16.0005 4.09273 16.4746 4.13486 17.1024Z" fill="#313131"/>
</svg>
