<svg width="22" height="32" viewBox="0 0 22 32" fill="none" xmlns="http://www.w3.org/2000/svg">
<path d="M16.689 26.6717H16.0814L16.7989 26.0655C17.7896 24.9805 17.7128 23.2919 16.6279 22.3012C15.5431 21.3108 13.8544 21.3874 12.8637 22.4723L10.8344 24.695C10.8344 24.695 9.10727 21.8264 9.10607 21.8243C8.73889 21.2146 8.15636 20.7844 7.46565 20.6128C6.77487 20.4413 6.05878 20.549 5.44905 20.9161C4.19038 21.6739 3.78295 23.3144 4.54073 24.573C4.54163 24.5745 5.80436 26.6717 5.80436 26.6717C5.80436 26.6717 3.60019 26.6717 3.59996 26.6717C2.13082 26.6717 0.935547 27.8669 0.935547 29.3361C0.935547 30.8052 2.13082 32.0005 3.59996 32.0005H16.6889C18.1582 32.0005 19.3534 30.8052 19.3534 29.3361C19.3534 27.8669 18.1582 26.6717 16.689 26.6717ZM12.3558 25.2567C12.5029 25.6262 12.7324 25.9605 13.0346 26.2365C13.2324 26.4171 13.4504 26.5618 13.6804 26.6717H11.0639L12.3558 25.2567ZM13.9731 23.4853C14.202 23.2346 14.5163 23.1074 14.8317 23.1074C15.1117 23.1074 15.3924 23.2076 15.6148 23.4108C16.0881 23.8428 16.1215 24.5793 15.6894 25.0525C15.2574 25.5257 14.5209 25.5592 14.0477 25.1271C13.8185 24.9177 13.6845 24.6318 13.6704 24.3217C13.6564 24.0116 13.7638 23.7145 13.9731 23.4853ZM6.22396 22.2031C6.40725 22.0928 6.6127 22.0362 6.8213 22.0362C6.91527 22.0362 7.00992 22.0477 7.10344 22.0709C7.40473 22.1457 7.65886 22.3333 7.81886 22.5992C7.97901 22.8652 8.02596 23.1775 7.95121 23.4787C7.8764 23.7799 7.68868 24.0341 7.42276 24.1941C7.15685 24.3542 6.84436 24.4012 6.54329 24.3264C6.24199 24.2516 5.98787 24.064 5.82787 23.798C5.49728 23.2492 5.67508 22.5337 6.22396 22.2031ZM7.06483 25.8522C7.46092 25.8164 7.84703 25.6924 8.19775 25.4813C8.5484 25.2702 8.83925 24.9875 9.05612 24.6542L9.77754 25.8525L9.02967 26.6717H7.5582L7.06483 25.8522ZM2.43797 29.3361C2.43797 28.6954 2.95921 28.1741 3.60004 28.1741C4.24086 28.1741 4.76218 28.6954 4.76218 29.3361C4.76218 29.9769 4.24079 30.4982 3.60004 30.4982C2.95929 30.4982 2.43797 29.9769 2.43797 29.3361ZM16.689 30.4982H5.99726C6.1683 30.1468 6.26445 29.7525 6.26445 29.3361C6.26445 28.9198 6.1683 28.5255 5.99726 28.1741H16.689C17.3298 28.1741 17.8512 28.6954 17.8512 29.3361C17.8512 29.9769 17.3298 30.4982 16.689 30.4982Z" fill="#313131"/>
<path d="M12.5704 20.9932C12.5761 20.9933 12.5817 20.9933 12.5875 20.9933C12.9946 20.9933 13.3291 20.668 13.3382 20.259C13.3397 20.1954 13.3469 19.6174 13.1677 18.9174C12.9098 17.91 12.3873 17.1461 11.6566 16.7083C10.2002 15.8359 9.9415 14.9893 9.87359 14.4284C9.8319 14.0846 9.56065 13.8138 9.21677 13.7729C8.874 13.7319 8.54552 13.9312 8.42428 14.2557C8.36726 14.4081 7.0455 18.014 8.54957 20.1779C8.78634 20.5186 9.25455 20.6028 9.59506 20.366C9.93571 20.1293 10.0199 19.6611 9.78315 19.3205C9.32726 18.6645 9.27536 17.6865 9.37421 16.7821C9.76369 17.223 10.266 17.6266 10.8846 17.9971C11.6855 18.4769 11.8431 19.7694 11.8362 20.2275C11.8281 20.6413 12.1564 20.9839 12.5704 20.9932Z" fill="#313131"/>
<path d="M19.4882 11.3497C17.5531 8.33968 14.8946 6.77678 14.7823 6.71166C14.4892 6.54174 14.1184 6.58907 13.8773 6.82749C13.6364 7.06584 13.5848 7.43609 13.7516 7.73115C14.3745 8.83305 14.5093 10.0591 14.4264 11.1782C13.7243 7.79132 12.2889 5.30561 11.0394 3.67466C9.1888 1.25919 7.35541 0.151807 7.27826 0.105835C7.01986 -0.048156 6.69438 -0.0330574 6.45115 0.144295C6.20807 0.321647 6.09419 0.626924 6.16179 0.920107L6.7441 3.44323C7.43285 6.42801 6.39886 9.50039 4.04573 11.4613C0.901692 14.0814 -0.229878 18.4105 1.23003 22.2339L2.13572 24.606C2.28363 24.9935 2.71788 25.1878 3.10534 25.0398C3.49294 24.8918 3.6872 24.4576 3.53914 24.0701L2.63345 21.698C1.40258 18.4744 2.35664 14.8244 5.00746 12.6154C6.36912 11.4807 7.38771 9.99301 7.95304 8.31316C8.51838 6.63331 8.60656 4.83252 8.20807 3.10542L8.10779 2.67087C10.0998 4.53866 13.2563 8.53799 13.354 15.1848C13.359 15.5292 13.5977 15.826 13.9328 15.905C14.2681 15.9838 14.614 15.8248 14.7723 15.5189C14.8511 15.3667 16.3147 12.4802 15.8734 9.41724C16.6236 10.0952 17.486 11.0136 18.2244 12.1622C20.5345 15.7556 20.5424 19.7849 18.248 24.1381C18.0546 24.5052 18.1954 24.9595 18.5624 25.1529C18.6741 25.2118 18.7938 25.2397 18.9119 25.2397C19.1818 25.2397 19.4426 25.0939 19.5771 24.8385C22.7727 18.7752 21.2926 14.1565 19.4882 11.3497Z" fill="#313131"/>
</svg>
