<svg width="30" height="29" viewBox="0 0 30 29" fill="none" xmlns="http://www.w3.org/2000/svg">
<path d="M20.8329 14.4225H17.8844V11.5004C17.8844 11.1815 17.6902 10.9609 17.3714 10.9609H13.3329C13.014 10.9609 12.692 11.1815 12.692 11.5004V14.4225H9.87137C9.5525 14.4225 9.23047 14.643 9.23047 14.962V19.0004C9.23047 19.3193 9.55244 19.6148 9.87137 19.6148H12.692V22.462C12.692 22.7808 13.014 23.0764 13.3329 23.0764H17.3714C17.6902 23.0764 17.8844 22.7809 17.8844 22.462V19.6148H20.8329C21.1518 19.6148 21.3459 19.3193 21.3459 19.0004V14.962C21.3459 14.643 21.1518 14.4225 20.8329 14.4225ZM20.192 18.4609H17.3714C17.0525 18.4609 16.7305 18.6815 16.7305 19.0004V21.9225H13.8458V19.0004C13.8458 18.6815 13.6517 18.4609 13.3329 18.4609H10.3843V15.5763H13.3329C13.6517 15.5763 13.8458 15.2808 13.8458 14.9619V12.1148H16.7305V14.9619C16.7305 15.2808 17.0524 15.5763 17.3714 15.5763H20.192V18.4609Z" fill="#313131"/>
<path d="M27.1754 5.7692H26.5385V3.42404C26.5385 1.51523 25.0479 0 23.1369 0H6.991C5.07996 0 3.46154 1.51529 3.46154 3.42404V5.7692H2.95248C1.35979 5.7692 0 7.02475 0 8.61352V25.9274C0 27.5162 1.35979 28.8461 2.95248 28.8461H27.1754C28.7681 28.8461 30 27.5162 30 25.9274V8.61352C30 7.02475 28.7681 5.7692 27.1754 5.7692ZM4.61537 3.42404C4.61537 2.15133 5.71652 1.15383 6.99094 1.15383H23.1369C24.4113 1.15383 25.4486 2.18883 25.4486 3.46154L25.4503 5.76926H23.0769V4.86633C23.0769 3.75305 22.2366 2.88457 21.1256 2.88457H9.00229C7.89129 2.88457 6.92303 3.75305 6.92303 4.86633V5.7692H4.61537V3.42404ZM21.987 4.90377L21.9853 5.76914H8.07691V4.86633C8.07691 4.38914 8.52732 4.0384 9.00229 4.0384H21.1256C21.6005 4.0384 21.987 4.42658 21.987 4.90377ZM28.8462 25.9274C28.8462 26.8801 28.132 27.6922 27.1754 27.6922H2.95248C1.99582 27.6922 1.15383 26.8801 1.15383 25.9274V8.61352C1.15383 7.66078 1.99582 6.92303 2.95248 6.92303H4.6776H8.14254H21.9853H25.4503H27.1754C28.132 6.92303 28.8461 7.66078 28.8461 8.61352V25.9274H28.8462Z" fill="#313131"/>
</svg>
