<svg width="32" height="27" viewBox="0 0 32 27" fill="none" xmlns="http://www.w3.org/2000/svg">
<path d="M32 13.2781C32 12.8379 31.6431 12.481 31.2029 12.481H4.8196V9.21916H7.3247V10.7074C7.3247 11.1476 7.68157 11.5045 8.12178 11.5045C8.562 11.5045 8.91886 11.1476 8.91886 10.7074V8.42208C8.91886 7.98186 8.562 7.625 8.12178 7.625H4.02252C3.5823 7.625 3.22544 7.98186 3.22544 8.42208V12.481H0.797079C0.356864 12.481 0 12.8379 0 13.2781C0 18.2824 3.00784 22.5968 7.31024 24.5101L7.06486 24.6127C6.65869 24.7825 6.46705 25.2493 6.63682 25.6555C6.7647 25.9612 7.06076 26.1454 7.37253 26.1454C7.47501 26.1454 7.5792 26.1254 7.67963 26.0835L9.62109 25.2719C10.4794 25.4625 11.3709 25.5638 12.2858 25.5638H19.7143C20.7983 25.5638 21.8497 25.4221 22.8516 25.1572L25.0673 26.0835C25.1678 26.1255 25.272 26.1454 25.3744 26.1454C25.6862 26.1454 25.9824 25.9611 26.1102 25.6555C26.2799 25.2493 26.0883 24.7825 25.6821 24.6127L25.0446 24.3461C29.1568 22.3578 32 18.1437 32 13.2781V13.2781ZM19.7143 23.9697H12.2858C6.65857 23.9697 2.03267 19.5997 1.62365 14.0751H30.3766C29.9674 19.5999 25.3415 23.9697 19.7143 23.9697Z" fill="#313131"/>
<path d="M13.9998 9.60019C13.9998 9.60019 16.4417 7.54659 15.9998 6.0002C15.6964 4.93813 14.1814 5.08974 13.9998 4.0002C13.7789 2.67471 15.9998 1.2002 15.9998 1.2002" stroke="#313131" stroke-width="2"/>
<path d="M18.4158 9.60019C18.4158 9.60019 20.8577 7.54659 20.4158 6.0002C20.1124 4.93813 18.5974 5.08974 18.4158 4.0002C18.1949 2.67471 20.4158 1.2002 20.4158 1.2002" stroke="#313131" stroke-width="2"/>
<path d="M23.2156 9.60019C23.2156 9.60019 25.6575 7.54659 25.2156 6.0002C24.9122 4.93813 23.3972 5.08974 23.2156 4.0002C22.9947 2.67471 25.2156 1.2002 25.2156 1.2002" stroke="#313131" stroke-width="2"/>
</svg>


