<svg width="34" height="32" viewBox="0 0 34 32" fill="none" xmlns="http://www.w3.org/2000/svg">
<path d="M33.0534 27.1249H31.37V6.02975L33.703 1.91479C33.8341 1.68364 33.8324 1.40034 33.6987 1.17068C33.5649 0.941137 33.3192 0.799805 33.0534 0.799805H0.946938C0.681233 0.799805 0.435474 0.941031 0.301715 1.17068C0.167955 1.40023 0.166249 1.68364 0.297341 1.91479L2.63034 6.02975V27.1249H0.946938C0.534567 27.1249 0.200275 27.4592 0.200275 27.8716V31.2016C0.200275 31.6139 0.534567 31.9482 0.946938 31.9482H33.0534C33.4658 31.9482 33.8001 31.6139 33.8001 31.2016V27.8716C33.8001 27.4592 33.4659 27.1249 33.0534 27.1249ZM27.099 27.1249V12.5923C27.099 12.1799 26.7647 11.8456 26.3524 11.8456C24.444 11.8456 22.4629 10.7036 20.715 9.69619C19.2885 8.8739 18.0566 8.16382 17.0003 8.16382C15.9439 8.16382 14.7119 8.8739 13.2853 9.69619C11.5374 10.7036 9.55628 11.8456 7.64803 11.8456C7.23565 11.8456 6.90136 12.1799 6.90136 12.5923V27.1249H4.12378V6.5794H29.8768V27.1249H27.099ZM21.2508 27.1249C21.5243 26.8798 21.7756 26.6123 21.9974 26.325C22.9244 25.1242 23.2981 23.6753 23.0496 22.2457C22.755 20.551 21.5567 19.2352 20.4994 18.0745C18.7527 16.157 18.4233 15.4918 19.4336 14.466C19.624 14.2726 19.6945 13.9913 19.6178 13.731C19.5411 13.4708 19.3294 13.2726 19.0645 13.2133C18.7503 13.143 18.4346 13.1074 18.1263 13.1074C17.0396 13.1074 16.0651 13.5453 15.3825 14.3408C14.7687 15.0562 14.4275 16.024 14.3811 17.1432C14.0791 17.0615 13.7607 17.0192 13.434 17.0192C12.2914 17.0192 11.3385 17.532 10.947 18.3575C10.7833 18.7028 10.9068 19.1161 11.2332 19.315C12.0617 19.8197 12.0464 20.3071 11.8733 21.7714C11.7883 22.491 11.692 23.3067 11.7432 24.2815C11.8121 25.5906 12.2844 26.4939 12.8849 27.1248H8.3948V13.2952C10.4396 13.0602 12.412 11.9233 14.0312 10.9899C15.2204 10.3045 16.3435 9.65715 17.0002 9.65715C17.657 9.65715 18.7803 10.3045 19.9695 10.99C21.5888 11.9234 23.561 13.0602 25.6058 13.2952V27.1249H21.2508ZM12.7546 18.632C12.9483 18.5563 13.1839 18.5127 13.4342 18.5127C13.9216 18.5127 14.3841 18.6767 14.7032 18.9628C14.9379 19.173 15.2797 19.2136 15.5571 19.0633C15.8344 18.9132 15.9875 18.6049 15.9396 18.2933C15.7456 17.0309 15.9503 15.9725 16.5159 15.3131C16.7861 14.9982 17.1279 14.7836 17.5226 14.6775C16.9033 16.3444 18.2608 17.8344 19.3953 19.0799C20.3604 20.1394 21.3583 21.235 21.5783 22.5011C21.785 23.6904 21.3284 25.0693 20.2562 26.0384C20.3699 25.711 20.4544 25.3695 20.4891 25.0268C20.5663 24.2633 20.3777 23.5832 19.944 23.0602C19.7764 22.8583 19.5152 22.7593 19.2561 22.7989C19.0739 22.8269 18.9114 22.9207 18.7965 23.0581C18.8513 22.7499 18.8759 22.4208 18.8512 22.0829C18.7735 21.0271 18.2272 20.1254 17.271 19.4754C17.0477 19.3236 16.7599 19.304 16.518 19.4246C16.2763 19.5451 16.1185 19.7867 16.1054 20.0566C16.0789 20.6014 15.6934 21.1421 15.247 21.7681C14.4846 22.8376 13.5068 24.2093 14.1126 26.2325C13.6481 25.8039 13.2854 25.1707 13.2346 24.2032C13.19 23.3554 13.2784 22.607 13.3565 21.9468C13.4997 20.7338 13.6365 19.5759 12.7546 18.632ZM16.184 27.1249C14.7914 24.9818 15.5683 23.8899 16.4629 22.6351C16.7178 22.2775 16.9769 21.9142 17.1833 21.5251C17.2538 21.6672 17.3038 21.8174 17.3337 21.9766C17.4952 22.8346 17.0197 23.7641 16.8703 23.9888C16.748 24.1479 16.6938 24.3513 16.7238 24.5534C16.7602 24.7981 16.9154 25.009 17.1382 25.1163C17.4053 25.245 17.6908 25.3102 17.9864 25.3102C18.3362 25.3102 18.6743 25.2197 18.9783 25.0549C18.8374 25.835 18.2967 26.7153 17.9875 27.1247H16.184V27.1249ZM31.7719 2.29345L30.1884 5.08629H3.8121L2.22864 2.29345H31.7719ZM32.3068 30.4551H1.6936V28.6184H32.3068V30.4551Z" fill="#313131"/>
</svg>
