<svg width="180" height="142" viewBox="0 0 180 142" fill="none" xmlns="http://www.w3.org/2000/svg">
<path d="M16 2H164V-2H16V2ZM178 16V126H182V16H178ZM164 140H16V144H164V140ZM2 126V16H-2V126H2ZM16 140C8.26801 140 2 133.732 2 126H-2C-2 135.941 6.05887 144 16 144V140ZM178 126C178 133.732 171.732 140 164 140V144C173.941 144 182 135.941 182 126H178ZM164 2C171.732 2 178 8.26801 178 16H182C182 6.05887 173.941 -2 164 -2V2ZM16 -2C6.05887 -2 -2 6.05888 -2 16H2C2 8.26802 8.26801 2 16 2V-2Z" fill="#E5E5E5"/>
</svg>
