<svg width="29" height="32" viewBox="0 0 29 32" fill="none" xmlns="http://www.w3.org/2000/svg">
<path d="M12.1334 19.7338C12.1334 20.4448 11.3771 20.8485 11.3584 20.8581C11.0976 20.9909 10.9915 21.3098 11.1227 21.5722C11.2166 21.7594 11.4048 21.8672 11.6006 21.8672C11.6806 21.8672 11.7622 21.849 11.8384 21.8112C11.8939 21.7829 13.2001 21.1141 13.2001 19.7338C13.2001 18.9797 12.8017 18.5808 12.5104 18.2901C12.2491 18.0288 12.1334 17.9002 12.1334 17.6004C12.1334 16.8847 12.9003 16.4799 12.9051 16.4777C13.1686 16.3455 13.2758 16.0255 13.1441 15.762C13.0123 15.4991 12.6923 15.3913 12.4283 15.5231C12.3729 15.5513 11.0667 16.2201 11.0667 17.6004C11.0667 18.3545 11.4651 18.7534 11.7563 19.0441C12.0176 19.3056 12.1334 19.4341 12.1334 19.7338Z" fill="#313131"/>
<path d="M11.0664 5.33427C11.0664 5.92253 11.5448 6.40097 12.1331 6.40097C12.7214 6.40097 13.1998 5.92259 13.1998 5.33427C13.1998 4.74602 12.7214 4.26758 12.1331 4.26758C11.5448 4.26764 11.0664 4.74602 11.0664 5.33427Z" fill="#313131"/>
<path d="M16.4 19.7338C16.4 20.4448 15.6437 20.8485 15.625 20.8581C15.3642 20.9909 15.2581 21.3098 15.3893 21.5722C15.4832 21.7594 15.6714 21.8672 15.8672 21.8672C15.9472 21.8672 16.0288 21.849 16.105 21.8112C16.1605 21.7829 17.4667 21.1141 17.4667 19.7338C17.4667 18.9797 17.0683 18.5808 16.777 18.2901C16.5157 18.0288 16.4 17.9002 16.4 17.6004C16.4 16.8847 17.1669 16.4799 17.1717 16.4777C17.4352 16.3455 17.5424 16.0255 17.4107 15.762C17.2789 15.4991 16.9584 15.3913 16.6949 15.5231C16.6394 15.5513 15.3333 16.2201 15.3333 17.6004C15.3333 18.3545 15.7317 18.7534 16.0229 19.0441C16.2843 19.3056 16.4 19.4341 16.4 19.7338Z" fill="#313131"/>
<path d="M15.8663 1.06669H23.3331C23.6274 1.06669 23.8664 0.827755 23.8664 0.533378C23.8664 0.239001 23.6274 0 23.3331 0H15.8663C15.5719 0 15.333 0.238939 15.333 0.533315C15.333 0.827692 15.5719 1.06669 15.8663 1.06669Z" fill="#313131"/>
<path d="M5.20128 1.06669H11.6013C11.8957 1.06669 12.1346 0.827755 12.1346 0.533378C12.1346 0.239001 11.8958 0 11.6013 0H5.20128C4.90691 0 4.66797 0.238939 4.66797 0.533315C4.66797 0.827692 4.90691 1.06669 5.20128 1.06669Z" fill="#313131"/>
<path d="M25.4672 2.13281H3.06709C1.59671 2.13281 0.400391 3.32907 0.400391 4.79952V7.99953C0.400391 8.29391 0.63933 8.53285 0.933706 8.53285H25.4672C25.7616 8.53285 26.0005 8.29391 26.0005 7.99953C26.0005 7.70516 25.7616 7.46622 25.4672 7.46622H1.46708V4.79952C1.46708 3.91739 2.18496 3.19951 3.06709 3.19951H25.4672C26.3494 3.19951 27.0672 3.91739 27.0672 4.79952V27.1996C27.0672 28.0818 26.3494 28.7997 25.4672 28.7997C25.1729 28.7997 24.9339 29.0386 24.9339 29.333V30.933H3.60041V29.8663H23.3338C23.6282 29.8663 23.8672 29.6273 23.8672 29.333C23.8672 29.0386 23.6282 28.7997 23.3338 28.7997H3.06709C2.18496 28.7997 1.46708 28.0818 1.46708 27.1996V10.1329C1.46708 9.83848 1.22815 9.59954 0.933769 9.59954C0.639392 9.59954 0.400453 9.83848 0.400453 10.1329V27.1996C0.400453 28.4877 1.31833 29.5645 2.53378 29.8125V31.4664C2.53378 31.7607 2.77272 31.9997 3.06709 31.9997H25.4672C25.7616 31.9997 26.0005 31.7607 26.0005 31.4664V29.8125C27.216 29.565 28.1339 28.4877 28.1339 27.1996V4.79952C28.1339 3.32913 26.9376 2.13281 25.4672 2.13281Z" fill="#313131"/>
<path d="M6.80078 5.33427C6.80078 5.92253 7.27916 6.40097 7.86748 6.40097C8.45573 6.40097 8.93417 5.92259 8.93417 5.33427C8.93417 4.74602 8.45579 4.26758 7.86748 4.26758C7.27922 4.26764 6.80078 4.74602 6.80078 5.33427Z" fill="#313131"/>
<path d="M19.6006 5.33427C19.6006 5.92253 20.079 6.40097 20.6673 6.40097C21.2555 6.40097 21.734 5.92259 21.734 5.33427C21.734 4.74602 21.2556 4.26758 20.6673 4.26758C20.079 4.26764 19.6006 4.74602 19.6006 5.33427Z" fill="#313131"/>
<path d="M15.333 5.33427C15.333 5.92253 15.8114 6.40097 16.3997 6.40097C16.988 6.40097 17.4664 5.92259 17.4664 5.33427C17.4664 4.74602 16.988 4.26758 16.3997 4.26758C15.8114 4.26764 15.333 4.74602 15.333 5.33427Z" fill="#313131"/>
<path d="M24.4 27.733C25.2821 27.733 26 27.0151 26 26.133V11.1996C26 10.3175 25.2821 9.59961 24.4 9.59961H4.13321C3.25108 9.59961 2.5332 10.3175 2.5332 11.1996V26.133C2.5332 27.0151 3.25108 27.733 4.13321 27.733H24.4ZM3.59983 26.133V11.1996C3.59983 10.9057 3.83927 10.6663 4.13315 10.6663H24.4C24.6938 10.6663 24.9333 10.9057 24.9333 11.1996V26.133C24.9333 26.4269 24.6938 26.6663 24.4 26.6663H4.13321C3.83934 26.6664 3.59983 26.4269 3.59983 26.133Z" fill="#313131"/>
</svg>
