<svg width="34" height="34" viewBox="0 0 34 34" fill="none" xmlns="http://www.w3.org/2000/svg">
<path d="M25.0908 22.803V21.6058H25.7076C26.0081 21.6058 26.2518 21.3621 26.2518 21.0615C26.2518 20.761 26.0081 20.5173 25.7076 20.5173H24.7212L24.9389 19.8643H25.1271C25.4276 19.8643 25.6713 19.6206 25.6713 19.3201C25.6713 19.0195 25.4276 18.7759 25.1271 18.7759H24.5578C24.5574 18.7759 24.557 18.7759 24.5567 18.7759H21.0547C21.0538 18.7759 21.0529 18.7759 21.052 18.7759H20.4832C20.1826 18.7759 19.939 19.0195 19.939 19.3201C19.939 19.6206 20.1826 19.8643 20.4832 19.8643H20.6714L20.8891 20.5173H17.5444V8.25449H32.9788C33.3779 8.25449 33.7093 7.98086 33.7847 7.58896C33.8602 7.19705 33.6541 6.81988 33.2836 6.67164L17.2072 0.241047C17.1895 0.233719 17.1714 0.227478 17.153 0.222109C17.1529 0.222036 17.1527 0.222036 17.1525 0.221964C17.1361 0.217247 17.1196 0.213184 17.1028 0.209991C17.0986 0.209193 17.0943 0.20883 17.0901 0.208177C17.0774 0.206073 17.0646 0.203896 17.0518 0.202662C17.0356 0.201139 17.0195 0.200413 17.0032 0.20034C17.0022 0.20034 17.0012 0.200195 17.0002 0.200195C16.983 0.200195 16.9658 0.200993 16.9486 0.202662C16.9373 0.203751 16.9261 0.20571 16.915 0.207451C16.9092 0.208395 16.9033 0.208903 16.8976 0.209991C16.8816 0.213039 16.8658 0.216957 16.8501 0.221456C16.8492 0.221673 16.8483 0.221819 16.8473 0.222109C16.8291 0.227478 16.811 0.233791 16.7933 0.241047L0.716768 6.67157C0.34627 6.81981 0.140197 7.19698 0.21566 7.58889C0.291124 7.98079 0.622511 8.25442 1.0216 8.25442H16.4559V20.5173H13.1113L13.329 19.8642H13.5172C13.8178 19.8642 14.0614 19.6205 14.0614 19.32C14.0614 19.0195 13.8178 18.7758 13.5172 18.7758H12.9479C12.9475 18.7758 12.9472 18.7758 12.9468 18.7758H9.44479C9.44392 18.7758 9.44305 18.7758 9.44218 18.7758H8.8733C8.57275 18.7758 8.32909 19.0195 8.32909 19.32C8.32909 19.6205 8.57275 19.8642 8.8733 19.8642H9.06153L9.27921 20.5173H8.29281C7.99226 20.5173 7.7486 20.7609 7.7486 21.0615C7.7486 21.362 7.99226 21.6057 8.29281 21.6057H8.90958V22.8029C8.90958 23.4231 9.4141 23.9276 10.0343 23.9276H16.4559V29.8946C15.7819 30.1223 15.295 30.7603 15.295 31.5103V32.7075H14.0977C13.7972 32.7075 13.5535 32.9512 13.5535 33.2518C13.5535 33.5523 13.7972 33.796 14.0977 33.796H19.9026C20.2032 33.796 20.4468 33.5523 20.4468 33.2518C20.4468 32.9512 20.2032 32.7075 19.9026 32.7075H18.7053V31.5103C18.7053 30.7604 18.2185 30.1224 17.5444 29.8946V23.9276H23.9661V23.9277C24.5863 23.9277 25.0908 23.4232 25.0908 22.803ZM23.7915 19.8643L23.5738 20.5173H22.0364L21.8187 19.8643H23.7915ZM31.5891 7.16607H24.1916L19.2599 2.23438L31.5891 7.16607ZM2.41136 7.16607L14.7407 2.23438L9.80898 7.16607H2.41136ZM11.3482 7.16607L17.0002 1.51399L22.6523 7.16607H11.3482ZM12.1817 19.8643L11.964 20.5173H10.4266L10.2089 19.8643H12.1817ZM17.617 31.5104V32.7076H16.3835V31.5104C16.3835 31.1703 16.6601 30.8936 17.0002 30.8936C17.3403 30.8936 17.617 31.1703 17.617 31.5104ZM23.966 22.8393H10.0343C10.0143 22.8393 9.99807 22.823 9.99807 22.803V21.6058H10.0325C10.033 21.6058 10.0337 21.6059 10.0343 21.6059C10.0349 21.6059 10.0354 21.6058 10.036 21.6058H23.9644C23.9649 21.6058 23.9655 21.6059 23.9661 21.6059C23.9667 21.6059 23.9673 21.6058 23.9679 21.6058H24.0023V22.803C24.0023 22.823 23.9861 22.8393 23.966 22.8393Z" fill="#313131"/>
<path d="M7.71229 25.1619H2.38782L1.28641 16.3508C1.24912 16.0526 0.976721 15.841 0.67893 15.8783C0.380703 15.9156 0.169115 16.1876 0.206411 16.4858L1.36318 25.7401V28.0281V33.2526C1.36318 33.5531 1.60684 33.7968 1.90739 33.7968C2.20794 33.7968 2.4516 33.5531 2.4516 33.2526V30.8943H7.16808V33.2526C7.16808 33.5531 7.41174 33.7968 7.71229 33.7968C8.01284 33.7968 8.2565 33.5531 8.2565 33.2526V28.4828C8.93059 28.2551 9.41748 27.6172 9.41748 26.8672C9.41748 25.9268 8.65254 25.1619 7.71229 25.1619ZM7.16808 29.8058H2.4516V28.5723H7.16808V29.8058ZM7.71229 27.4839H2.4516V26.2503H7.71229C8.05239 26.2503 8.32906 26.527 8.32906 26.8671C8.32906 27.2072 8.05239 27.4839 7.71229 27.4839Z" fill="#313131"/>
<path d="M33.3216 15.8783C33.0233 15.8409 32.7514 16.0526 32.7141 16.3508L31.6127 25.1619H26.2882C25.3479 25.1619 24.583 25.9269 24.583 26.8671C24.583 27.6171 25.0699 28.255 25.744 28.4828V33.2525C25.744 33.5531 25.9876 33.7967 26.2882 33.7967C26.5887 33.7967 26.8324 33.5531 26.8324 33.2525V30.8943H31.5489V33.2525C31.5489 33.5531 31.7926 33.7967 32.0931 33.7967C32.3937 33.7967 32.6373 33.5531 32.6373 33.2525V28.0281V25.74L33.7941 16.4858C33.8314 16.1876 33.6199 15.9157 33.3216 15.8783ZM31.5489 29.8059H26.8324V28.5724H31.5489V29.8059ZM31.5489 27.484H26.2882C25.9481 27.484 25.6714 27.2073 25.6714 26.8672C25.6714 26.5271 25.9481 26.2504 26.2882 26.2504H31.5489V27.484Z" fill="#313131"/>
</svg>
