<svg width="24" height="37" viewBox="0 0 24 37" fill="none" xmlns="http://www.w3.org/2000/svg">
<path d="M11.8033 0.400391C5.29491 0.400391 0 5.6953 0 12.2036V14.2781C0 16.1012 0.430834 17.9265 1.24579 19.5565L6.22734 29.5203C6.50822 30.0815 7.05363 30.441 7.67143 30.4893V36.4004H8.85175V30.4988H14.7534V36.4004H15.9337V30.4893C16.5516 30.4415 17.0969 30.0822 17.3778 29.5203L22.3593 19.5565C23.1756 17.9265 23.6064 16.1012 23.6064 14.2781V12.2036C23.6065 5.6953 18.3117 0.400391 11.8033 0.400391ZM22.4262 14.2781C22.4262 15.9187 22.0384 17.5618 21.3049 19.0289L16.3232 28.9926C16.2218 29.1933 16.02 29.3184 15.7951 29.3184H7.8113C7.58644 29.3184 7.38399 29.1933 7.28315 28.9921L2.3016 19.0283C1.56798 17.5611 1.18033 15.9181 1.18033 14.2775V12.2036C1.18033 6.34634 5.94595 1.58072 11.8033 1.58072C17.6606 1.58072 22.4262 6.34634 22.4262 12.2036V14.2781Z" fill="#313131"/>
<path d="M11.803 2.76074C6.59656 2.76074 2.36035 6.99695 2.36035 12.2033V12.7936H21.2456V12.2033C21.2456 6.99695 17.0095 2.76074 11.803 2.76074ZM3.56133 11.6132C3.86525 7.33222 7.44576 3.94107 11.803 3.94107C16.1602 3.94107 19.7407 7.3321 20.0446 11.6132H3.56133Z" fill="#313131"/>
<path d="M15.3438 21.0556H18.8847V13.9736H15.3438V21.0556ZM16.5241 15.154H17.7044V19.8753H16.5241V15.154Z" fill="#313131"/>
<path d="M14.1643 13.9736H4.72168V21.0556H14.1643V13.9736ZM12.984 19.8753H5.90201V15.154H12.984V19.8753Z" fill="#313131"/>
<path d="M15.9336 23.417H7.08105V24.5973H15.9336V23.417Z" fill="#313131"/>
<path d="M13.5729 25.7773H7.08105V26.9577H13.5729V25.7773Z" fill="#313131"/>
<path d="M15.9342 25.7773H14.7539V26.9577H15.9342V25.7773Z" fill="#313131"/>
</svg>
