<svg width="37" height="27" viewBox="0 0 37 27" fill="none" xmlns="http://www.w3.org/2000/svg">
<path d="M32.9602 10.1285L34.7988 9.9064C35.7118 9.7961 36.4004 9.01941 36.4004 8.09975C36.4004 7.09634 35.5841 6.27995 34.5806 6.27995H33.2998C32.5172 6.27995 31.8485 6.77653 31.5921 7.47114L29.8009 3.5502C29.1362 2.09434 27.8081 1.01161 26.2481 0.654009C23.6078 0.0489624 13.193 0.0488859 10.5526 0.654009C8.9926 1.01168 7.66455 2.09434 6.99999 3.55005L5.20864 7.47091C4.95209 6.77645 4.28348 6.28002 3.50097 6.28002H2.2202C1.21671 6.27994 0.400391 7.09634 0.400391 8.09975C0.400391 9.01941 1.08889 9.7961 2.00197 9.9064L3.84052 10.1285L2.08213 11.8869C1.22734 12.7416 0.818416 13.9665 0.988151 15.1633L1.5896 19.4039C1.74419 20.4938 2.30923 21.4443 3.1127 22.1086V24.0346C3.1127 25.1801 4.04467 26.1121 5.19021 26.1121H8.6353C9.78084 26.1121 10.7128 25.1801 10.7128 24.0346V23.0992H26.0883V24.0347C26.0883 25.1802 27.0202 26.1122 28.1658 26.1122H31.61C32.7556 26.1122 33.6875 25.1802 33.6875 24.0347V22.1089C34.4912 21.4446 35.0564 20.4939 35.2109 19.4039L35.8124 15.1633C35.9821 13.9664 35.5732 12.7416 34.7185 11.8868L32.9602 10.1285ZM30.9547 21.7224H5.84604C4.45451 21.7224 3.25092 20.7227 2.98083 19.3716H33.8199C33.5498 20.7226 32.3462 21.7224 30.9547 21.7224ZM26.5109 15.7548L27.2107 17.9947H26.2572L25.5573 15.7548H26.5109ZM24.1149 15.7548L24.8147 17.9947H11.9858L12.6856 15.7548H24.1149ZM10.5433 17.9947H9.59007L10.2899 15.7548H11.2431L10.5433 17.9947ZM8.14759 17.9947H2.78034L2.4626 15.7548H8.84734L8.14759 17.9947ZM28.6531 17.9947L27.9533 15.7548H34.338L34.0203 17.9947H28.6531ZM32.8568 8.09975C32.8568 7.85551 33.0556 7.65679 33.2998 7.65679H34.5806C34.8248 7.65679 35.0235 7.85551 35.0235 8.09975C35.0235 8.32364 34.8559 8.51265 34.6337 8.5395L32.8569 8.75406V8.09975H32.8568ZM10.8601 1.99597C13.2562 1.44692 23.5446 1.44692 25.9405 1.99597C26.5316 2.13151 27.0765 2.40971 27.5334 2.79339C24.2533 2.22506 12.5439 2.22514 9.26712 2.79355C9.72401 2.40979 10.269 2.13151 10.8601 1.99597ZM8.01756 4.63592C8.44323 4.42036 8.90402 4.26394 9.39066 4.17039C12.3374 3.60191 24.463 3.60183 27.411 4.17047C27.8971 4.26386 28.3575 4.42021 28.783 4.63554L30.9109 9.29309H5.89003L8.01756 4.63592ZM1.77724 8.09975C1.77724 7.85551 1.97596 7.65679 2.2202 7.65679H3.50097C3.74521 7.65679 3.94393 7.85551 3.94393 8.09975V8.75413L2.16719 8.53958C1.94483 8.51265 1.77724 8.32356 1.77724 8.09975ZM5.2462 10.6699H31.5545L33.7451 12.8605C34.1542 13.2696 34.4043 13.8107 34.461 14.3779H2.33968C2.39636 13.8107 2.64648 13.2696 3.05564 12.8605L5.2462 10.6699ZM9.33604 24.0347C9.33604 24.421 9.02174 24.7353 8.63538 24.7353H5.19028C4.80393 24.7353 4.48962 24.421 4.48962 24.0347V22.8767C4.91828 23.021 5.37486 23.0992 5.84612 23.0992H9.33604V24.0347ZM32.3109 24.0347C32.3109 24.421 31.9965 24.7353 31.6102 24.7353H28.1659C27.7796 24.7353 27.4653 24.421 27.4653 24.0347V23.0992H30.9547C31.4259 23.0992 31.8823 23.0211 32.3109 22.8769V24.0347H32.3109Z" fill="#313131"/>
</svg>
