<svg width="34" height="32" viewBox="0 0 34 32" fill="none" xmlns="http://www.w3.org/2000/svg">
<path d="M33.2559 29.8279H32.0585V28.4024C32.0585 27.8869 31.8122 27.4393 31.4526 27.2155C31.469 27.1538 31.4779 27.0883 31.4779 27.0201V11.7717H32.6754C32.8745 11.7717 33.0577 11.6423 33.1531 11.4343C33.2484 11.2262 33.2408 10.9728 33.1332 10.7735L27.9081 1.09743C27.808 0.911943 27.6355 0.799805 27.4503 0.799805H6.55009C6.36489 0.799805 6.19239 0.911943 6.09224 1.09734L0.867188 10.7734C0.759566 10.9728 0.751946 11.2262 0.847304 11.4342C0.942733 11.6423 1.1259 11.7717 1.32503 11.7717H2.52244V27.0201C2.52244 27.0883 2.53137 27.1538 2.54777 27.2155C2.18818 27.4393 1.94188 27.8869 1.94188 28.4024V29.8279H0.744472C0.443886 29.8279 0.200195 30.118 0.200195 30.4758C0.200195 30.8337 0.443886 31.1238 0.744472 31.1238H33.2559C33.5565 31.1238 33.8002 30.8337 33.8002 30.4758C33.8002 30.118 33.5565 29.8279 33.2559 29.8279ZM26.8335 27.0633V21.4478H28.0671V27.0633H26.8335ZM24.5112 27.0633V21.4478H25.7449V27.0633H24.5112ZM22.189 27.0633V21.4478H23.4227V27.0633H22.189ZM12.9 27.0633V15.539L16.0645 11.7717H17.9358L21.1004 15.539V27.0633H12.9ZM10.5777 27.0633V21.4478H11.8114V27.0633H10.5777ZM8.25549 27.0633V21.4478H9.48918V27.0633H8.25549ZM5.93324 27.0633V21.4478H7.16693V27.0633H5.93324ZM3.60918 27.0633C3.60998 27.049 3.61099 27.0347 3.61099 27.0201V21.4478H4.84469V27.0633H3.60918ZM8.64693 11.7717L11.8114 15.539V20.1519H3.61099V15.539L6.77549 11.7717H8.64693ZM20.3701 2.0957L22.1106 10.4758H11.8898L13.6303 2.0957H20.3701ZM27.2249 11.7717L30.3894 15.539V20.1519H22.189V15.539L25.3535 11.7717H27.2249ZM19.4753 11.7717H21.1004V13.7064L19.4753 11.7717ZM22.189 13.7064V11.7717H23.8141L22.189 13.7064ZM12.9 13.7064V11.7717H14.5251L12.9 13.7064ZM11.8114 11.7717V13.7064L10.1863 11.7717H11.8114ZM29.1557 21.4478H30.3894V27.0201C30.3894 27.0347 30.3904 27.049 30.3912 27.0633H29.1557V21.4478ZM30.3894 13.7064L28.7643 11.7717H30.3894V13.7064ZM31.6785 10.4758H23.2319L21.4915 2.0957H27.1532L31.6785 10.4758ZM6.84726 2.0957H12.509L10.7684 10.4758H2.32193L6.84726 2.0957ZM5.23613 11.7717L3.61099 13.7064V11.7717H5.23613ZM3.03043 28.4024C3.03043 28.3786 3.04669 28.3592 3.06672 28.3592H30.9337C30.9537 28.3592 30.97 28.3786 30.97 28.4024V29.8279H3.03043V28.4024Z" fill="black"/>
</svg>
