<svg width="65" height="52" viewBox="0 0 65 52" fill="none" xmlns="http://www.w3.org/2000/svg">
<path d="M2.56023 14.4462H48.0094C48.3437 14.4452 48.6748 14.5106 48.9835 14.6387C49.2923 14.7667 49.5725 14.9548 49.808 15.1921C50.2837 15.6699 50.5517 16.3162 50.5538 16.9906V49.443C50.5547 49.7764 50.4892 50.1067 50.3611 50.4145C50.2331 50.7224 50.045 51.0017 49.808 51.2362C49.7688 51.2802 49.7244 51.3193 49.6757 51.3525C49.2138 51.766 48.6134 51.9907 47.9936 51.982H2.54436C1.87047 51.982 1.22411 51.7147 0.747102 51.2387C0.270096 50.7627 0.00141224 50.1168 1.12279e-05 49.443V16.9906C-0.000985846 16.6563 0.0644344 16.3252 0.192473 16.0165C0.320511 15.7077 0.508615 15.4275 0.745861 15.1921C1.22342 14.7158 1.86992 14.4477 2.54436 14.4462H2.56023ZM17.0064 1.12279e-05H62.4557C62.7899 -0.000985846 63.121 0.0644344 63.4297 0.192473C63.7385 0.320511 64.0187 0.508615 64.2542 0.745861C64.7299 1.22374 64.9979 1.87003 65 2.54436V34.9968C65.0009 35.3302 64.9354 35.6605 64.8073 35.9683C64.6793 36.2762 64.4912 36.5555 64.2542 36.79C64.2163 36.8353 64.1717 36.8745 64.1219 36.9063C63.6579 37.3325 63.0486 37.5652 62.4186 37.557H59.5728V34.4995H61.9584V3.02044H17.4878V5.24212H14.4462V2.54436C14.4452 2.21012 14.5106 1.87902 14.6387 1.57027C14.7667 1.26153 14.9548 0.981299 15.1921 0.745861C15.6699 0.270093 16.3162 0.00207316 16.9906 1.12279e-05H17.0064ZM9.78598 7.22576H55.2352C55.5686 7.22488 55.8989 7.29037 56.2068 7.41842C56.5146 7.54647 56.7939 7.73452 57.0284 7.97161C57.5048 8.44689 57.7731 9.09186 57.7743 9.76482V42.2172C57.7753 42.5515 57.7098 42.8826 57.5818 43.1913C57.4538 43.5 57.2657 43.7803 57.0284 44.0157C56.9891 44.0596 56.9447 44.0987 56.8962 44.1321C56.4343 44.5455 55.8339 44.7702 55.214 44.7616H52.3682V41.7253H54.7538V10.2462H10.2621V12.4679H7.22047V9.76482C7.22187 9.09093 7.49055 8.44513 7.96756 7.96911C8.44457 7.4931 9.09093 7.22576 9.76482 7.22576H9.78598ZM13.055 23.2747C13.7774 23.2737 14.4838 23.487 15.0848 23.8877C15.6858 24.2883 16.1545 24.8583 16.4314 25.5254C16.7083 26.1926 16.781 26.9269 16.6403 27.6354C16.4997 28.3439 16.1519 28.9948 15.6412 29.5055C15.1304 30.0163 14.4796 30.364 13.7711 30.5047C13.0626 30.6453 12.3283 30.5726 11.6611 30.2957C10.994 30.0188 10.424 29.5502 10.0233 28.9491C9.62267 28.3481 9.40936 27.6417 9.41041 26.9194C9.41041 26.4407 9.50468 25.9668 9.68784 25.5246C9.871 25.0824 10.1395 24.6807 10.4779 24.3422C10.8163 24.0038 11.2181 23.7353 11.6603 23.5522C12.1025 23.369 12.5764 23.2747 13.055 23.2747ZM28.3952 38.927L35.7003 26.2952L43.4497 45.8988H7.28395V43.4709L10.3202 43.3175L13.3618 35.8696L14.88 41.191H19.4397L23.3911 31.0083L28.4058 38.9111L28.3952 38.927ZM47.5334 17.4561H3.0416V48.9457H47.5334V17.4561Z" fill="#313131"/>
</svg>
