<svg width="34" height="30" viewBox="0 0 34 30" fill="none" xmlns="http://www.w3.org/2000/svg">
<path d="M32.5695 26.7129C24.9067 29.2667 20.8459 28.2404 16.5474 27.1546C12.485 26.1284 8.28328 25.0705 0.985949 26.6891C0.770118 26.737 0.582161 26.8687 0.463427 27.0552C0.344693 27.2417 0.304908 27.4677 0.352824 27.6836C0.40074 27.8994 0.532432 28.0873 0.718929 28.2061C0.905426 28.3248 1.13145 28.3646 1.34728 28.3167C8.26212 26.7794 12.266 27.7917 16.139 28.7708C18.6574 29.5133 21.2623 29.9221 23.8871 29.9866C27.0288 29.9282 30.1398 29.3562 33.0968 28.2933C33.3009 28.2191 33.4679 28.0682 33.5624 27.8726C33.6568 27.6771 33.6712 27.4524 33.6025 27.2464C33.5338 27.0404 33.3873 26.8694 33.1944 26.7698C33.0014 26.6701 32.7772 26.6497 32.5695 26.7129Z" fill="#313131"/>
<path d="M1.34745 23.3176C8.26228 21.7819 12.2662 22.7926 16.1391 23.7717C18.6575 24.5142 21.2625 24.9229 23.8873 24.9875C27.029 24.9289 30.14 24.3569 33.097 23.294C33.3011 23.2198 33.4682 23.0688 33.5626 22.8733C33.6571 22.6777 33.6715 22.4531 33.6028 22.2471C33.534 22.0411 33.3876 21.87 33.1946 21.7704C33.0017 21.6708 32.7775 21.6504 32.5697 21.7136C29.7132 22.7418 26.7025 23.2758 23.6666 23.2926V3.33724C23.6666 2.89521 23.8422 2.47129 24.1548 2.15873C24.4673 1.84617 24.8913 1.67057 25.3333 1.67057C25.7753 1.67057 26.1992 1.84617 26.5118 2.15873C26.8244 2.47129 27 2.89521 27 3.33724C27 3.55825 27.0877 3.77022 27.244 3.9265C27.4003 4.08278 27.6123 4.17057 27.8333 4.17057C28.0543 4.17057 28.2663 4.08278 28.4225 3.9265C28.5788 3.77022 28.6666 3.55825 28.6666 3.33724C28.6666 2.45318 28.3154 1.60534 27.6903 0.980217C27.0652 0.355096 26.2173 0.00390625 25.3333 0.00390625C24.4492 0.00390625 23.6014 0.355096 22.9763 0.980217C22.3511 1.60534 22 2.45318 22 3.33724V6.67057H10.3333V3.33724C10.3333 2.89521 10.5089 2.47129 10.8214 2.15873C11.134 1.84617 11.5579 1.67057 12 1.67057C12.442 1.67057 12.8659 1.84617 13.1785 2.15873C13.491 2.47129 13.6666 2.89521 13.6666 3.33724C13.6666 3.55825 13.7544 3.77022 13.9107 3.9265C14.067 4.08278 14.2789 4.17057 14.5 4.17057C14.721 4.17057 14.9329 4.08278 15.0892 3.9265C15.2455 3.77022 15.3333 3.55825 15.3333 3.33724C15.3333 2.45318 14.9821 1.60534 14.357 0.980217C13.7319 0.355096 12.884 0.00390625 12 0.00390625C11.1159 0.00390625 10.268 0.355096 9.64293 0.980217C9.01781 1.60534 8.66662 2.45318 8.66662 3.33724V20.8789C6.08267 20.8294 3.5026 21.1017 0.985949 21.6897C0.770118 21.7377 0.582162 21.8693 0.463428 22.0558C0.344694 22.2423 0.304908 22.4684 0.352824 22.6842C0.40074 22.9 0.532432 23.088 0.718929 23.2067C0.905426 23.3255 1.13145 23.3652 1.34728 23.3173L1.34745 23.3176ZM10.3333 13.3372H22V16.6705H10.3333V13.3372ZM22 8.33716V11.6705H10.3333V8.33716H22ZM10.3333 18.3372H22V23.2038C20.1576 22.999 18.3344 22.6484 16.5475 22.1552C14.5116 21.5926 12.4333 21.1963 10.3333 20.9702V18.3372Z" fill="#313131"/>
</svg>
