<svg width="37" height="28" viewBox="0 0 37 28" fill="none" xmlns="http://www.w3.org/2000/svg">
<path d="M35.6833 0.400391H1.11752C0.72145 0.400391 0.400391 0.78269 0.400391 1.25412V27.0367C0.400391 27.5081 0.72145 27.8904 1.11752 27.8904H35.6833C36.0793 27.8904 36.4004 27.5081 36.4004 27.0367V1.25412C36.4004 0.78269 36.0793 0.400391 35.6833 0.400391ZM34.9661 26.183H1.83465V2.10785H34.9661V26.183Z" fill="#313131"/>
<path d="M3.98666 24.3051H6.56834H16.3357H20.4663H30.2337H32.8154C33.2114 24.3051 33.5325 23.9228 33.5325 23.4513V20.3779V7.91348V4.84006C33.5325 4.36863 33.2114 3.98633 32.8154 3.98633H30.2337H20.4663H16.3357H6.56834H3.98666C3.59059 3.98633 3.26953 4.36863 3.26953 4.84006V7.91348V20.3779V23.4513C3.26953 23.9228 3.59059 24.3051 3.98666 24.3051ZM17.2614 22.5976C17.5004 22.1471 17.9213 21.8463 18.401 21.8463C18.8807 21.8463 19.3016 22.1471 19.5406 22.5976H17.2614ZM32.0982 22.5976H31.0944C31.2836 22.0592 31.646 21.6278 32.0982 21.4026V22.5976ZM32.0982 5.69378V6.88875C31.6459 6.66353 31.2836 6.23215 31.0944 5.69378H32.0982ZM19.5406 5.69378C19.3016 6.1443 18.8807 6.44507 18.401 6.44507C17.9213 6.44507 17.5004 6.1443 17.2614 5.69378H19.5406ZM4.70379 5.69378H5.70756C5.51838 6.23223 5.15602 6.66353 4.70379 6.88875V5.69378ZM4.70379 8.67372C5.94809 8.3441 6.92999 7.17509 7.20694 5.69378H15.7122C16.0293 7.10781 17.1146 8.15252 18.401 8.15252C19.6873 8.15252 20.7726 7.1079 21.0898 5.69378H29.5951C29.872 7.17509 30.854 8.3441 32.0982 8.67372V19.6176C30.8539 19.9472 29.872 21.1163 29.5951 22.5975H21.0898C20.7726 21.1835 19.6873 20.1388 18.401 20.1388C17.1146 20.1388 16.0293 21.1834 15.7122 22.5975H7.20694C6.92999 21.1163 5.94809 19.9473 4.70379 19.6177V8.67372ZM4.70379 21.4026C5.15609 21.6278 5.51846 22.0592 5.70756 22.5976H4.70379V21.4026Z" fill="#313131"/>
<path d="M8.30108 19.5827C8.38979 19.6264 8.48295 19.6477 8.57532 19.6477C8.76199 19.6477 8.94543 19.5609 9.08261 19.3976L12.9872 14.7493C13.2672 14.4159 13.2672 13.8754 12.9872 13.5419L9.08261 8.8936C8.87751 8.64952 8.569 8.57644 8.30108 8.70851C8.03309 8.84067 7.8584 9.15194 7.8584 9.49727V18.7939C7.8584 19.1392 8.03316 19.4505 8.30108 19.5827ZM9.29266 11.5583L11.4659 14.1456L9.29266 16.7328V11.5583Z" fill="#313131"/>
<path d="M25.7865 20.0784C26.1825 20.0784 26.5036 19.6961 26.5036 19.2247V17.7307C26.5036 17.2593 26.1825 16.877 25.7865 16.877C25.3905 16.877 25.0693 17.2593 25.0693 17.7307V19.2247C25.0693 19.6961 25.3905 20.0784 25.7865 20.0784Z" fill="#313131"/>
<path d="M25.7865 15.5967C26.1825 15.5967 26.5036 15.2144 26.5036 14.7429V9.06564C26.5036 8.59421 26.1825 8.21191 25.7865 8.21191C25.3905 8.21191 25.0693 8.59421 25.0693 9.06564V14.7429C25.0693 15.2144 25.3905 15.5967 25.7865 15.5967Z" fill="#313131"/>
<path d="M28.4408 14.9994C28.6294 14.9994 28.8144 14.9081 28.9477 14.7492C29.0812 14.5905 29.1579 14.3703 29.1579 14.1457C29.1579 13.9212 29.0812 13.7009 28.9477 13.5421C28.8144 13.3833 28.6294 13.292 28.4408 13.292C28.2522 13.292 28.0671 13.3833 27.9338 13.5421C27.8004 13.701 27.7236 13.9212 27.7236 14.1457C27.7236 14.3703 27.8003 14.5905 27.9338 14.7492C28.0671 14.9081 28.2522 14.9994 28.4408 14.9994Z" fill="#313131"/>
</svg>
