<svg width="40" height="40" viewBox="0 0 40 40" fill="none" xmlns="http://www.w3.org/2000/svg">
<path d="M23.7767 4C19.3961 4 15.8047 7.44219 15.5643 11.7638C11.3367 12.1018 8 15.6499 8 19.9628C8 20.3149 8.28544 20.6003 8.63744 20.6003H23.814C24.166 20.6003 24.4514 20.3149 24.4514 19.9628C24.4514 15.6344 21.0909 12.0763 16.8419 11.7601C17.0822 8.14375 20.1006 5.27488 23.7767 5.27488C27.6094 5.27488 30.7276 8.393 30.7276 12.2257V35.065C30.7276 35.4171 31.013 35.7024 31.365 35.7024C31.717 35.7024 32.0024 35.4171 32.0024 35.065V12.2257C32.0025 7.69006 28.3124 4 23.7767 4ZM23.1475 19.3254H9.30394C9.62694 15.7904 12.6081 13.012 16.2257 13.012C19.8434 13.012 22.8245 15.7904 23.1475 19.3254Z" fill="#313131"/>
<path d="M10.1999 21.7803C9.84794 21.7803 9.5625 22.0656 9.5625 22.4177V27.4022C9.5625 27.7543 9.84794 28.0396 10.1999 28.0396C10.5519 28.0396 10.8374 27.7543 10.8374 27.4022V22.4177C10.8374 22.0657 10.5521 21.7803 10.1999 21.7803Z" fill="#313131"/>
<path d="M10.1999 29.666C9.84794 29.666 9.5625 29.9514 9.5625 30.3035V35.288C9.5625 35.64 9.84794 35.9254 10.1999 35.9254C10.5519 35.9254 10.8374 35.64 10.8374 35.288V30.3035C10.8374 29.9514 10.5521 29.666 10.1999 29.666Z" fill="#313131"/>
<path d="M14.5154 22.8965C14.1634 22.8965 13.8779 23.1819 13.8779 23.5339V29.1135C13.8779 29.4656 14.1634 29.751 14.5154 29.751C14.8674 29.751 15.1528 29.4656 15.1528 29.1135V23.5339C15.1528 23.1819 14.8674 22.8965 14.5154 22.8965Z" fill="#313131"/>
<path d="M14.5154 31.5264C14.1634 31.5264 13.8779 31.8117 13.8779 32.1638V33.8749C13.8779 34.227 14.1634 34.5124 14.5154 34.5124C14.8674 34.5124 15.1528 34.227 15.1528 33.8749V32.1638C15.1528 31.8117 14.8674 31.5264 14.5154 31.5264Z" fill="#313131"/>
<path d="M18.0857 22.8965C17.7337 22.8965 17.4482 23.1819 17.4482 23.5339V24.129C17.4482 24.4811 17.7337 24.7665 18.0857 24.7665C18.4377 24.7665 18.7231 24.4811 18.7231 24.129V23.5339C18.7231 23.1819 18.4377 22.8965 18.0857 22.8965Z" fill="#313131"/>
<path d="M18.0857 25.9844C17.7337 25.9844 17.4482 26.2697 17.4482 26.6218V29.7836C17.4482 30.1357 17.7337 30.4211 18.0857 30.4211C18.4377 30.4211 18.7231 30.1357 18.7231 29.7836V26.6218C18.7231 26.2697 18.4377 25.9844 18.0857 25.9844Z" fill="#313131"/>
<path d="M21.657 22.3018C21.305 22.3018 21.0195 22.5871 21.0195 22.9392V24.8734C21.0195 25.2255 21.305 25.5109 21.657 25.5109C22.009 25.5109 22.2944 25.2255 22.2944 24.8734V22.9392C22.2944 22.5871 22.009 22.3018 21.657 22.3018Z" fill="#313131"/>
<path d="M21.657 27.2852C21.305 27.2852 21.0195 27.5705 21.0195 27.9226V35.3621C21.0195 35.7142 21.305 35.9995 21.657 35.9995C22.009 35.9995 22.2944 35.7142 22.2944 35.3621V27.9226C22.2944 27.5705 22.009 27.2852 21.657 27.2852Z" fill="#313131"/>
</svg>
