<svg width="33" height="32" viewBox="0 0 33 32" fill="none" xmlns="http://www.w3.org/2000/svg">
<path d="M1 28.1246V11.0746C1 9.36253 2.38792 7.97461 4.1 7.97461H28.9C30.6121 7.97461 32 9.36253 32 11.0746V28.1246C32 29.8367 30.6121 31.2246 28.9 31.2246H4.1C2.38792 31.2246 1 29.8367 1 28.1246Z" stroke="#313131" stroke-width="1.5"/>
<path d="M4.5957 25.4473V13.4441C4.5957 12.2388 5.66162 11.2617 6.9765 11.2617H26.0229C27.3378 11.2617 28.4037 12.2388 28.4037 13.4441V25.4473C28.4037 26.6527 27.3378 27.6297 26.0229 27.6297H6.9765C5.66162 27.6297 4.5957 26.6527 4.5957 25.4473Z" stroke="#313131" stroke-width="1.5"/>
<path d="M11.0742 1L16.4992 6.425L21.9242 1" stroke="#313131" stroke-width="1.5" stroke-linecap="round" stroke-linejoin="round"/>
</svg>
