<svg width="40" height="40" viewBox="0 0 40 40" fill="none" xmlns="http://www.w3.org/2000/svg">
<path d="M33.1164 4H7.52281C6.46233 4 5.59961 4.86208 5.59961 5.92064V34.0794C5.59961 35.1379 6.46233 36 7.52281 36H33.1164C34.1769 36 35.0396 35.1379 35.0396 34.0794V5.92064C35.0396 4.86208 34.1769 4 33.1164 4ZM33.7596 34.0794C33.7596 34.4326 33.471 34.72 33.1164 34.72H7.52281C7.16825 34.72 6.87961 34.4326 6.87961 34.0794V5.92064C6.87961 5.56736 7.16825 5.28 7.52281 5.28H33.1164C33.471 5.28 33.7596 5.56736 33.7596 5.92064V34.0794Z" fill="#313131"/>
<path d="M31.8398 5.91992H8.7998V7.19992H31.8398V5.91992Z" fill="#313131"/>
<path d="M31.8398 32.7998H8.7998V34.0798H31.8398V32.7998Z" fill="#313131"/>
<path d="M27.3595 8.47949H25.4395V9.75949H27.3595V8.47949Z" fill="#313131"/>
<path d="M14.5596 8.47949H12.6396V9.75949H14.5596V8.47949Z" fill="#313131"/>
<path d="M20.3196 27.6803C24.5545 27.6803 27.9996 24.2352 27.9996 20.0003C27.9996 15.7654 24.5545 12.3203 20.3196 12.3203C16.0848 12.3203 12.6396 15.7654 12.6396 20.0003C12.6396 24.2352 16.0848 27.6803 20.3196 27.6803ZM20.3196 13.6003C23.8486 13.6003 26.7196 16.4714 26.7196 20.0003C26.7196 23.5293 23.8486 26.4003 20.3196 26.4003C16.7907 26.4003 13.9196 23.5293 13.9196 20.0003C13.9196 16.4714 16.7907 13.6003 20.3196 13.6003Z" fill="#313131"/>
<path d="M22.24 20.6404H24.8V19.3604H22.24H20.96V20.6404V21.2804H22.24V20.6404Z" fill="#313131"/>
</svg>
