<svg width="32" height="26" viewBox="0 0 32 26" fill="none" xmlns="http://www.w3.org/2000/svg">
<path d="M17.882 20.7452C16.8441 19.7073 15.1552 19.7073 14.1173 20.7452C13.0794 21.7832 13.0794 23.4721 14.1173 24.51C14.6363 25.029 15.318 25.2885 15.9996 25.2885C16.6813 25.2885 17.3631 25.0291 17.8819 24.51C18.9199 23.4721 18.9199 21.7832 17.882 20.7452Z" fill="#313131"/>
<path d="M9.41211 16.039L11.2944 17.9213C13.8893 15.3265 18.1113 15.3265 20.7062 17.9213L22.5885 16.039C18.9559 12.4063 13.0449 12.4063 9.41211 16.039Z" fill="#313131"/>
<path d="M15.9992 6.65527C11.7328 6.65527 7.72183 8.31665 4.70508 11.3335L6.58739 13.2158C9.10133 10.7018 12.4439 9.31727 15.9991 9.31727C19.5544 9.31727 22.897 10.7018 25.4109 13.2158L27.2932 11.3335C24.2766 8.31665 20.2656 6.65527 15.9992 6.65527Z" fill="#313131"/>
<path d="M16 0C9.956 0 4.27375 2.35369 0 6.62744L1.88231 8.50975C5.65331 4.73881 10.6671 2.66206 16 2.66206C21.3329 2.66206 26.3467 4.73881 30.1177 8.50981L32 6.62744C27.7262 2.35369 22.044 0 16 0Z" fill="#313131"/>
</svg>
