<svg width="40" height="40" viewBox="0 0 40 40" fill="none" xmlns="http://www.w3.org/2000/svg">
<path d="M5 16.9727H35V18.2227H5V16.9727Z" fill="#212121"/>
<path d="M24.375 16.9727H33.125H33.75V17.5977V31.9141V32.5391H33.125H24.375H23.75V31.9141V17.5977V16.9727H24.375ZM32.5 18.2227H25V31.2891H32.5V18.2227Z" fill="#212121"/>
<path d="M6.875 19.4336H24.375V20.6836H6.875V19.4336Z" fill="#212121"/>
<path d="M24.375 24.1406H33.125V25.3906H24.375V24.1406Z" fill="#212121"/>
<path d="M7.5 18.125V35H6.25V18.125H7.5Z" fill="#212121"/>
<path d="M33.75 18.125V35H32.5V18.125H33.75Z" fill="#212121"/>
<path d="M28.75 28.8086C29.0952 28.8086 29.375 28.5288 29.375 28.1836C29.375 27.8384 29.0952 27.5586 28.75 27.5586C28.4048 27.5586 28.125 27.8384 28.125 28.1836C28.125 28.5288 28.4048 28.8086 28.75 28.8086Z" fill="#212121"/>
<path d="M28.75 21.9336C29.0952 21.9336 29.375 21.6538 29.375 21.3086C29.375 20.9634 29.0952 20.6836 28.75 20.6836C28.4048 20.6836 28.125 20.9634 28.125 21.3086C28.125 21.6538 28.4048 21.9336 28.75 21.9336Z" fill="#212121"/>
<path d="M26.7773 7.14844L32.793 9.31641L33.2227 9.47266V9.90234V16.1328H31.9727V10.3516L26.3477 8.32031L26.7773 7.14844Z" fill="#212121"/>
<path d="M30.2539 17.0703C30.2539 16.5625 30.5664 16.1328 31.0938 15.8594C31.5039 15.6445 32.0312 15.5078 32.6172 15.5078C33.2031 15.5078 33.75 15.6445 34.1406 15.8594C34.668 16.1328 34.9805 16.5625 34.9805 17.0703H33.7305C33.7305 17.0508 33.6523 17.0117 33.5547 16.9531C33.3203 16.8359 32.9883 16.7578 32.6172 16.7578C32.2461 16.7578 31.9141 16.8359 31.6797 16.9531C31.5625 17.0117 31.5039 17.0508 31.5039 17.0703H30.2539Z" fill="#212121"/>
<path d="M24.668 10.8791L22.6562 10.0587L22.0703 9.82437L22.3047 9.23844C22.5781 8.57437 23.1055 8.10562 23.7695 7.89078C24.3945 7.67594 25.1367 7.67594 25.8398 7.9689C26.543 8.26187 27.0703 8.76969 27.3633 9.35562C27.6758 9.98062 27.7344 10.6837 27.4609 11.3478L27.2265 11.9337L26.6406 11.6994L24.6289 10.8791H24.668ZM23.9062 9.2189L25.1367 9.72672L26.3867 10.2345C26.3672 10.1369 26.3281 10.0197 26.2695 9.92203C26.0937 9.59 25.8008 9.29703 25.3906 9.14078C24.9805 8.965 24.5508 8.965 24.1992 9.08219C24.1016 9.12125 24.0039 9.16031 23.9062 9.2189Z" fill="#212121"/>
<path d="M26.9336 7.28516L26.25 8.82812L25.1172 8.32031L25.8008 6.77734L26.9336 7.28516Z" fill="#212121"/>
<path d="M6.17188 5H20.625H21.25V5.625V13.75V14.375H20.625H6.17188H5.54688V13.75V5.625V5H6.17188ZM20 6.25H6.79688V13.125H20V6.25Z" fill="#212121"/>
<path d="M14.0234 14.2188V17.4609H12.7734V14.2188H14.0234Z" fill="#212121"/>
</svg>
